<?xml version="1.0" encoding="UTF-8" standalone="no"?><!DOCTYPE svg PUBLIC "-//W3C//DTD SVG 1.1//EN" "http://www.w3.org/Graphics/SVG/1.1/DTD/svg11.dtd"><svg width="95px" height="111px" viewBox="0 0 95 111" version="1.1" xmlns="http://www.w3.org/2000/svg" xmlns:xlink="http://www.w3.org/1999/xlink" xml:space="preserve" xmlns:serif="http://www.serif.com/" style="fill-rule:evenodd;clip-rule:evenodd;stroke-linecap:round;stroke-linejoin:round;stroke-miterlimit:1.5;"><g id="Layer2"><path d="M39.48,98.01c-0.099,0 -0.077,0.609 -0.074,0.653c0.049,0.719 0.254,1.44 0.682,2.028c0.939,1.287 2.789,1.694 4.271,1.871c1.104,0.132 2.218,0.173 3.329,0.165c0.772,-0.005 1.544,-0.027 2.315,-0.049c3.373,-0.093 8.843,-0.043 9.86,-4.211c0.12,-0.492 0.162,-1.006 0.129,-1.511c-0.212,-3.313 -3.94,-3.557 -6.525,-3.377c-2.391,0.167 -4.686,0.943 -7.073,1.125c-0.721,0.055 -1.447,0.071 -2.169,0.025c-0.434,-0.028 -0.925,-0.159 -1.334,0.051c-0.556,0.286 -0.943,1.001 -1.349,1.453c-0.674,0.75 -2.062,1.777 -2.062,1.777Z" style="fill:#ececec;stroke:#000;stroke-width:0.4px;"/><path d="M24.169,94.572c0,-0.067 -0.713,0.642 -0.783,0.74c-0.434,0.614 -0.766,1.301 -0.908,2.042c-0.434,2.257 0.611,4.212 2.617,5.251c1.883,0.975 4.057,1.439 6.119,1.848c3.716,0.737 7.168,1.101 10.896,0.187c1.767,-0.433 4.645,-1.106 5.293,-3.105c0.876,-2.702 -2.805,-3.643 -4.661,-4.069c-1.702,-0.39 -3.476,-0.637 -5.222,-0.689c-1.651,-0.048 -3.303,0.074 -4.954,-0.035c-2.682,-0.178 -8.397,-2.17 -8.397,-2.17Z" style="fill:#ececec;stroke:#000;stroke-width:0.4px;"/><path d="M57.859,66.067c0,0 0.356,-0.459 0.399,-0.497c0.22,-0.193 0.44,-0.384 0.659,-0.577c0.864,-0.759 1.729,-1.516 2.675,-2.173c2.479,-1.721 5.384,-2.814 8.361,-3.269c1.987,-0.303 4.449,-0.481 6.238,0.63c0.982,0.609 1.596,1.644 1.964,2.714c0.915,2.656 0.249,5.65 -1.628,7.724c-2.532,2.8 -6.254,3.152 -9.8,3.344c-1.865,0.101 -3.746,0.199 -5.613,0.097c-1.29,-0.07 -2.66,-0.2 -3.905,-0.572c-0.202,-0.06 -1,-0.206 -1.114,-0.435c-0.035,-0.07 0.14,-0.362 0.163,-0.424c0.149,-0.41 0.259,-0.83 0.354,-1.255c0.396,-1.772 0.65,-3.586 1.247,-5.307Z" style="fill:#ececec;stroke:#000;stroke-width:0.4px;"/><path d="M23.892,74.583c0,-0.617 -0.603,-1.489 -0.913,-1.969c-1.659,-2.576 -5.287,-3.702 -8.018,-2.191c-3.346,1.852 -4.041,6.436 -4.228,9.889c-0.187,3.435 0.204,7.479 2.576,10.176c1.186,1.349 3.289,2.515 4.88,1.1c1.575,-1.401 2.398,-3.823 3.053,-5.754c1.27,-3.744 2.65,-11.251 2.65,-11.251Z" style="fill:#fbfbfb;stroke:#000;stroke-width:0.4px;"/><path d="M37.688,59.964c-0.106,0 -0.334,0.614 -0.369,0.684c-0.373,0.739 -0.76,1.472 -1.154,2.2c-1.56,2.879 -3.18,6.043 -5.309,8.538c-1.009,1.182 -2.214,2.075 -3.69,2.583c-1.48,0.51 -3.274,0.629 -4.262,2.003c-1.11,1.545 -1.457,3.826 -1.841,5.643c-0.559,2.641 -1.142,5.757 -0.428,8.421c1.392,5.196 7.643,7.842 12.451,8.506c2.893,0.399 5.649,0.121 8.539,-0.031c1.991,-0.105 4.004,0.114 5.987,-0.083c3.161,-0.313 6.867,-1.985 8.256,-5.015c0.829,-1.808 1.018,-3.833 1.217,-5.788c0.227,-2.229 0.462,-4.452 0.378,-6.696c-0.077,-2.059 -0.342,-4.159 -0.06,-6.213c0.185,-1.348 0.744,-2.61 1.616,-3.654c0.58,-0.694 1.352,-1.208 1.798,-2.009c1.699,-3.05 1.144,-6.953 -1.284,-9.382c-0.59,-0.59 -1.306,-0.36 -2.019,-0.115c-1.073,0.368 -2.623,0.238 -3.749,0.418c-2.288,0.365 -4.648,0.304 -6.956,0.423c-2.356,0.122 -9.121,-0.433 -9.121,-0.433Z" style="fill:#c8c8c8;stroke:#000;stroke-width:0.4px;"/><path d="M31.584,58.04c0,0 -3.119,3.988 -4.58,5.903c-0.947,1.241 -1.798,2.66 -1.55,4.285c0.243,1.598 1.288,3.041 2.151,4.362c2.085,3.185 4.317,6.102 7.636,8.097c1.517,0.912 4.044,2.447 5.737,1.111c0.81,-0.639 1.393,-1.58 1.892,-2.467c0.391,-0.696 0.74,-1.421 1.016,-2.172c0.128,-0.35 0.236,-0.711 0.301,-1.078c0.316,-1.81 -1.495,-2.347 -2.823,-2.977c-1.602,-0.76 -3.207,-1.538 -4.686,-2.523c-0.71,-0.472 -1.496,-1.024 -1.854,-1.828c-0.351,-0.788 -0.164,-1.695 0.12,-2.472c0.147,-0.404 0.318,-0.799 0.498,-1.189c0.701,-1.515 2.148,-3.729 0.804,-5.31c-0.234,-0.276 -0.522,-0.506 -0.824,-0.702c-0.493,-0.321 -1.049,-0.545 -1.61,-0.716c-0.684,-0.209 -1.501,-0.421 -2.228,-0.324Z" style="fill:#ececec;stroke:#000;stroke-width:0.4px;"/></g><g id="Layer1"><path d="M67.479,45.547c-0.667,0 -1.497,-0.574 -2.094,-0.818c-0.889,-0.364 -1.809,-0.641 -2.693,-1.018c-1.038,-0.444 -1.96,-0.946 -3.114,-1.02c-2.617,-0.168 -5.657,0.219 -8.112,1.139c-1.708,0.641 -3.34,1.964 -5.222,2.016c-1.605,0.045 -3.138,-0.678 -4.587,-1.277c-1.248,-0.516 -2.532,-0.95 -3.768,-1.49c-0.836,-0.366 -3.043,-0.474 -3.95,-0.648c-2.469,-0.473 -3.705,-0.072 -6.066,0.556c-0.578,0.153 -1.153,0.313 -1.731,0.461c-0.072,0.018 -0.511,0.086 -0.511,0.204c0.227,0 0.587,-0.453 0.707,-0.599c0.585,-0.71 1.027,-1.544 1.469,-2.347c0.825,-1.498 1.561,-3.069 2.069,-4.705c0.611,-1.967 0.959,-3.999 1.794,-5.894c1.309,-2.967 3.594,-5.569 6.486,-7.076c0.496,-0.258 1.005,-0.484 1.526,-0.679c0,-0.419 -0.725,-1.034 -0.981,-1.284c-1.179,-1.153 -2.651,-1.831 -4.099,-2.572c-1.254,-0.642 -2.636,-1.234 -3.76,-2.091c-2.282,-1.741 -3.671,-4.433 -3.807,-7.275c-0.04,-0.843 -0.084,-2.004 0.242,-2.819c0.046,-0.114 0.483,0.18 0.518,0.202c0.57,0.363 1.219,0.582 1.845,0.829c1.477,0.582 3.07,0.664 4.613,0.959c3.915,0.747 7.235,2.734 10.151,5.426c2.117,1.954 3.715,4.663 3.221,7.623c1.013,0.066 2.016,0.19 2.994,0.356c0.366,0.062 0.733,0.129 1.1,0.203c0,-3.996 -2.267,-7.392 -2.991,-11.23c-0.192,-1.019 -0.221,-2.034 0.036,-3.044c0.171,-0.674 0.426,-1.324 0.765,-1.931c0.189,-0.338 0.401,-0.661 0.644,-0.962c0.134,-0.166 0.274,-0.328 0.422,-0.482c0.676,-0.701 0.803,-0.616 1.681,-0.24c0.224,0.096 0.448,0.191 0.666,0.301c0.433,0.22 0.86,0.462 1.27,0.721c1.674,1.057 3.202,2.472 4.416,4.03c2.231,2.866 2.567,5.985 2.242,9.515c-0.214,2.313 -0.808,4.724 -2.109,6.676c2.459,2.502 3.598,6.15 4.043,9.677c0.491,3.889 4.675,10.607 4.675,10.607Z" style="fill:#e8e8e8;stroke:#000;stroke-width:0.4px;"/><g><g><path d="M46.421,45.893c0,0 -1.247,-0.251 -1.276,-0.264c-0.374,-0.178 -1.304,-0.126 -1.673,-0.314c-1.634,-0.833 -3.29,-1.661 -5.029,-2.252c-3.851,-1.311 -8.305,-1.398 -12.058,0.292c-2.868,1.291 -4.997,3.906 -4.658,7.18c0.1,0.967 0.405,1.939 0.826,2.813c0.983,2.04 2.566,3.687 4.374,5.02c3.41,2.514 7.604,3.848 11.825,3.997c4.176,0.147 8.321,-0.63 12.506,-0.497c4.712,0.15 10.102,1.239 14.131,-1.909c0.688,-0.537 1.303,-1.166 1.84,-1.854c0.87,-1.114 1.562,-2.386 2.008,-3.728c0.36,-1.082 0.558,-2.227 0.551,-3.369c-0.02,-3.688 -2.643,-6.271 -5.96,-7.461c-4.222,-1.515 -8.964,-0.908 -13.077,0.645c-0.089,0.033 -0.274,0.15 -0.353,0.191c-0.315,0.164 -0.634,0.321 -0.954,0.476c-0.941,0.456 -1.966,0.939 -3.023,1.034Z" style="fill:#fff;stroke:#000;stroke-width:0.4px;"/><g><path d="M46.957,51.285c0,0 4.692,2.373 7.29,2.115c0.98,-0.098 1.948,-0.315 2.912,-0.51c0.096,-0.019 0.792,-0.254 0.866,-0.167c0.108,0.126 -0.491,0.759 -0.542,0.815c-0.742,0.815 -1.535,1.645 -2.348,2.388c-1.687,1.542 -4.126,3.144 -6.525,2.787c-1.094,-0.163 -1.725,-0.942 -2.138,-1.924c-0.686,-1.633 -0.481,-3.982 0.485,-5.504Z" style="fill:#bf1010;stroke:#000;stroke-width:0.4px;"/><path d="M51.999,58.099c-0.4,-0.472 -0.804,-0.814 -1.202,-1.06c-1.017,-0.63 -1.987,-0.634 -2.707,-0.588c-1.091,0.069 -1.636,0.317 -1.636,0.317c-0.014,0.012 0.162,0.433 0.177,0.465c0.185,0.413 0.545,0.843 0.916,1.106c0.302,0.216 1.779,0.415 2.134,0.455c0.29,0.033 2.318,-0.695 2.318,-0.695Z" style="fill:#ffb9cb;stroke:#000;stroke-width:0.4px;"/><path d="M47.674,49.743c0,0.25 -0.256,0.574 -0.384,0.768c-0.475,0.72 -1.085,1.197 -1.812,1.634" style="fill:none;stroke:#000;stroke-width:0.4px;"/><path d="M57.804,51.041c0,-0.003 -0.002,0.097 -0.003,0.12c-0.003,0.079 -0.004,0.157 -0.001,0.235c0.009,0.24 0.045,0.469 0.095,0.703c0.145,0.689 0.565,1.314 1.203,1.633" style="fill:none;stroke:#000;stroke-width:0.4px;"/><path d="M49.806,52.699c-0.068,0 -0.118,0.363 -0.128,0.406c-0.078,0.308 -0.168,0.628 -0.179,0.947c-0.002,0.073 -0.048,0.22 -0.002,0.287c0.055,0.08 0.212,0.101 0.297,0.115c0.268,0.043 0.543,0.058 0.813,0.083c0.212,0.02 0.423,0.04 0.636,0.052c0.148,0.008 0.296,0.011 0.445,0.002c0.075,-0.004 0.15,-0.011 0.224,-0.022c0.299,-0.04 0.308,-0.092 0.318,-0.385c0.003,-0.095 0.008,-0.19 0.012,-0.285c0.008,-0.176 0.032,-0.358 0.032,-0.534" style="fill:#fff;stroke:#000;stroke-width:0.4px;"/><path d="M52.261,53.352c-0.014,0 -0.037,0.451 -0.04,0.475c-0.011,0.113 -0.15,0.548 -0.047,0.652c0.058,0.058 0.196,0.035 0.267,0.033c0.238,-0.008 0.476,-0.012 0.714,-0.032c0.161,-0.014 0.32,-0.044 0.48,-0.067c0.077,-0.012 0.154,-0.022 0.231,-0.032c0.275,-0.033 0.347,-0.045 0.31,-0.324c-0.009,-0.066 -0.02,-0.132 -0.032,-0.197c-0.017,-0.099 -0.021,-0.234 -0.067,-0.325" style="fill:#fff;stroke:#000;stroke-width:0.4px;"/></g></g><g><path d="M47.385,47.645c-2.563,-0.506 -5.284,-0.566 -7.882,-0.373c-1.78,0.132 -3.681,0.348 -5.365,0.984" style="fill:none;stroke:#000;stroke-width:0.4px;"/><path d="M48.135,48.251c-1.672,-0.158 -3.389,-0.295 -5.067,-0.172c-2.419,0.178 -4.754,0.756 -7.062,1.478c-1.777,0.557 -3.678,1.131 -5.061,2.442" style="fill:none;stroke:#000;stroke-width:0.4px;"/><path d="M48.109,48.828c-4.369,0.364 -8.445,1.51 -12.368,3.481c-1.593,0.8 -3.305,1.702 -4.586,2.968" style="fill:none;stroke:#000;stroke-width:0.4px;"/><path d="M52.412,48.199c4.681,-0.791 9.57,-0.27 13.922,1.588" style="fill:none;stroke:#000;stroke-width:0.4px;"/><path d="M52.517,48.513c3.64,-0.358 7.275,0.03 10.579,1.681c1,0.5 1.99,1 2.798,1.787" style="fill:none;stroke:#000;stroke-width:0.4px;"/><path d="M52.937,48.986c3.097,0 5.955,1.054 8.642,2.512c1.552,0.842 2.911,1.619 3.766,3.215" style="fill:none;stroke:#000;stroke-width:0.4px;"/><ellipse cx="50.52" cy="48.595" rx="1.761" ry="1.115" style="fill:#ff7a9e;stroke:#000;stroke-width:0.4px;"/></g></g><g><path d="M29.261,8.257c0,0.441 0.635,1.087 0.888,1.389c1.186,1.414 2.895,2.252 4.622,2.811c2.754,0.889 5.793,0.958 7.602,3.577c0.387,0.56 0.668,1.189 0.889,1.83c0.271,0.781 0.473,1.595 0.547,2.42l-0.133,-0.911c-0.248,-0.311 -0.627,-0.503 -0.959,-0.709c-0.692,-0.428 -1.438,-0.721 -2.238,-0.872c-0.951,-0.178 -1.925,-0.163 -2.876,-0.349c-0.767,-0.151 -1.501,-0.416 -2.221,-0.716c-1.992,-0.829 -3.91,-2.14 -4.867,-4.141c-0.341,-0.715 -0.464,-1.458 -0.566,-2.236c-0.041,-0.316 -0.148,-0.655 -0.148,-0.975" style="fill:#ffccd2;stroke:#000;stroke-width:0.4px;"/><path d="M56.265,23.59c1.833,-1.833 2.89,-4.874 2.419,-7.426c-0.301,-1.631 -1.119,-3.068 -2.157,-4.343c-1.215,-1.492 -2.845,-2.856 -3.648,-4.638c-0.195,-0.433 -0.345,-0.885 -0.39,-1.358c-0.002,-0.021 -0.037,-0.423 0.016,-0.423l0.019,0.753c0,0.152 0.082,0.337 0.107,0.488c0.051,0.316 0.064,0.636 0.061,0.955c-0.014,1.455 -0.242,2.897 -0.196,4.356c0.1,3.18 1.084,6.602 3.248,9.014c0.29,0.323 0.61,0.653 0.974,0.893c0.165,0.108 0.393,0.156 0.544,0.269" style="fill:#ffccd2;stroke:#000;stroke-width:0.4px;"/></g><g><g><path d="M51.641,26.507c1.934,-0.43 4.236,2.506 5.136,6.554c0.901,4.047 0.062,7.683 -1.872,8.113c-1.934,0.431 -4.236,-2.506 -5.137,-6.553c-0.9,-4.048 -0.061,-7.683 1.873,-8.114Z" style="fill:#fff;stroke:#000;stroke-width:0.3px;"/><g><path d="M54.389,35.226c0.588,-0.141 1.305,0.743 1.601,1.973c0.296,1.23 0.059,2.343 -0.528,2.484c-0.588,0.142 -1.306,-0.742 -1.602,-1.972c-0.296,-1.23 -0.059,-2.343 0.529,-2.485Z"/><path d="M54.864,35.653c0.238,-0.057 0.527,0.299 0.647,0.796c0.119,0.496 0.023,0.945 -0.214,1.003c-0.237,0.057 -0.526,-0.3 -0.646,-0.796c-0.119,-0.497 -0.024,-0.946 0.213,-1.003Z" style="fill:#fff;"/></g></g><g><path d="M39.462,28.241c1.927,-0.464 4.279,2.432 5.249,6.463c0.971,4.032 0.194,7.681 -1.732,8.145c-1.927,0.464 -4.278,-2.433 -5.249,-6.464c-0.97,-4.031 -0.194,-7.681 1.732,-8.144Z" style="fill:#fff;stroke:#000;stroke-width:0.33px;"/><g><path d="M42.337,36.475c0.588,-0.142 1.305,0.742 1.601,1.972c0.296,1.23 0.06,2.343 -0.528,2.485c-0.588,0.141 -1.306,-0.742 -1.602,-1.972c-0.296,-1.23 -0.059,-2.344 0.529,-2.485Z"/><path d="M42.813,36.901c0.237,-0.057 0.526,0.3 0.646,0.796c0.119,0.496 0.024,0.946 -0.214,1.003c-0.237,0.057 -0.526,-0.3 -0.646,-0.796c-0.119,-0.496 -0.024,-0.946 0.214,-1.003Z" style="fill:#fff;"/></g></g></g></g></svg>
